<?xml version="1.0" standalone="no"?>
<!DOCTYPE svg PUBLIC "-//W3C//DTD SVG 20010904//EN"
 "http://www.w3.org/TR/2001/REC-SVG-20010904/DTD/svg10.dtd">
<svg version="1.0" xmlns="http://www.w3.org/2000/svg"
 width="512.000000pt" height="512.000000pt" viewBox="0 0 512.000000 512.000000"
 preserveAspectRatio="xMidYMid meet">

<g transform="translate(0.000000,512.000000) scale(0.100000,-0.100000)"
fill="#000000" stroke="none">
<path d="M1761 3876 c-40 -22 -50 -54 -51 -158 0 -54 3 -98 8 -98 4 0 23 5 42
11 78 23 329 49 480 49 151 0 402 -26 480 -49 19 -6 38 -11 42 -11 5 0 8 43 8
95 0 107 -12 144 -55 163 -39 18 -921 16 -954 -2z"/>
<path d="M1690 2503 c-59 -17 -97 -71 -85 -123 17 -80 118 -109 176 -51 55 55
30 149 -46 170 -16 4 -37 6 -45 4z"/>
<path d="M2102 2498 c-36 -10 -72 -57 -72 -96 0 -87 112 -137 173 -76 34 33
42 73 24 117 -22 51 -66 71 -125 55z"/>
<path d="M2533 2503 c-12 -2 -34 -18 -48 -34 -84 -100 49 -228 146 -141 79 70
9 195 -98 175z"/>
<path d="M2970 2503 c-59 -17 -97 -71 -85 -123 17 -80 118 -109 176 -51 55 55
30 149 -46 170 -16 4 -37 6 -45 4z"/>
<path d="M3382 2498 c-36 -10 -72 -57 -72 -96 0 -87 112 -137 173 -76 34 33
42 73 24 117 -22 51 -66 71 -125 55z"/>
<path d="M1043 2275 c-148 -40 -287 -156 -349 -291 -97 -210 -57 -432 108
-597 137 -137 320 -188 502 -141 180 46 337 202 386 383 15 56 15 206 0 262
-50 184 -210 341 -391 384 -79 18 -187 18 -256 0z m172 -419 c89 -38 84 -165
-9 -196 -45 -15 -81 -4 -111 32 -46 55 -28 135 39 164 39 17 40 17 81 0z"/>
<path d="M1849 2261 c-58 -58 -29 -159 51 -176 53 -12 115 33 121 85 4 41 -4
64 -30 91 -23 23 -38 29 -71 29 -33 0 -48 -6 -71 -29z"/>
<path d="M2282 2265 c-81 -68 -17 -200 88 -179 17 4 42 20 55 36 81 96 -47
224 -143 143z"/>
<path d="M2714 2272 c-70 -56 -53 -154 30 -182 72 -23 145 41 132 116 -14 69
-110 109 -162 66z"/>
<path d="M3129 2261 c-58 -58 -29 -159 51 -176 53 -12 115 33 121 85 4 41 -4
64 -30 91 -23 23 -38 29 -71 29 -33 0 -48 -6 -71 -29z"/>
<path d="M3816 2274 c-177 -43 -333 -197 -383 -379 -17 -62 -18 -208 -3 -266
49 -181 206 -337 386 -383 181 -47 363 4 500 139 214 210 217 530 7 743 -136
139 -319 191 -507 146z m168 -418 c43 -18 66 -51 66 -97 0 -46 -38 -95 -79
-104 -61 -13 -131 43 -131 105 0 36 30 81 63 95 40 18 41 18 81 1z"/>
</g>
</svg>
